<svg width="109" height="124" viewBox="0 0 109 124" fill="none" xmlns="http://www.w3.org/2000/svg">
<path d="M12.9782 41.6308L20.6532 31.234L23.3708 43.8063L35.7797 47.7853L24.4843 54.2186L24.4781 67.0729L14.7743 58.4765L2.36225 62.4431L7.66551 50.6952L0 40.2921L12.9782 41.6308Z" fill="url(#paint0_linear_262_97)"/>
<path d="M9.91767 91.418L5.32214 81.2381L16.0796 84.6779L24.4875 77.225L24.4906 88.3656L34.2825 93.9405L23.5281 97.3896L21.1722 108.289L14.5226 99.2769L3.27444 100.436L9.91767 91.418Z" fill="url(#paint1_linear_262_97)"/>
<path d="M50.9724 116.172L42.3223 115.273L48.7831 109.534L46.9776 101.152L54.5142 105.434L62.0507 101.152L60.2452 109.534L66.7091 115.273L58.056 116.172L54.5142 124L50.9724 116.172Z" fill="url(#paint2_linear_262_97)"/>
<path d="M94.3453 99.094L87.7964 107.966L85.475 97.2346L74.8874 93.8413L84.5282 88.3501L84.5314 77.3799L92.8103 84.7181L103.404 81.331L98.8779 91.356L105.42 100.234L94.3453 99.094Z" fill="url(#paint3_linear_262_97)"/>
<path d="M101.334 50.6797L106.638 62.4276L94.2257 58.461L84.5251 67.0574L84.5188 54.2031L73.2203 47.7698L85.6292 43.7908L88.3468 31.2185L96.0218 41.6153L109 40.2766L101.334 50.6797Z" fill="url(#paint4_linear_262_97)"/>
<path d="M61.5789 15.6557L78.8821 17.4562L65.9574 28.9315L69.5684 45.6997L54.4953 37.1343L39.4253 45.6997L43.0332 28.9315L30.1084 17.4562L47.4117 15.6557L54.4953 0L61.5789 15.6557Z" fill="url(#paint5_linear_262_97)"/>
<defs>
<linearGradient id="paint0_linear_262_97" x1="54.5" y1="0" x2="54.5" y2="124" gradientUnits="userSpaceOnUse">
<stop stop-color="#F59E0B"/>
<stop offset="1" stop-color="#F97316"/>
</linearGradient>
<linearGradient id="paint1_linear_262_97" x1="54.5" y1="0" x2="54.5" y2="124" gradientUnits="userSpaceOnUse">
<stop stop-color="#F59E0B"/>
<stop offset="1" stop-color="#F97316"/>
</linearGradient>
<linearGradient id="paint2_linear_262_97" x1="54.5" y1="0" x2="54.5" y2="124" gradientUnits="userSpaceOnUse">
<stop stop-color="#F59E0B"/>
<stop offset="1" stop-color="#F97316"/>
</linearGradient>
<linearGradient id="paint3_linear_262_97" x1="54.5" y1="0" x2="54.5" y2="124" gradientUnits="userSpaceOnUse">
<stop stop-color="#F59E0B"/>
<stop offset="1" stop-color="#F97316"/>
</linearGradient>
<linearGradient id="paint4_linear_262_97" x1="54.5" y1="0" x2="54.5" y2="124" gradientUnits="userSpaceOnUse">
<stop stop-color="#F59E0B"/>
<stop offset="1" stop-color="#F97316"/>
</linearGradient>
<linearGradient id="paint5_linear_262_97" x1="54.5" y1="0" x2="54.5" y2="124" gradientUnits="userSpaceOnUse">
<stop stop-color="#F59E0B"/>
<stop offset="1" stop-color="#F97316"/>
</linearGradient>
</defs>
</svg>
