<svg width="427" height="123" viewBox="0 0 427 123" fill="none" xmlns="http://www.w3.org/2000/svg">
<path d="M171.31 45.5038V45.2341C171.31 42.9993 169.884 42.0745 166.801 42.0745H159.943C154.394 42.0745 153.046 42.8066 153.046 47.5846V51.4763C153.046 55.8689 154.934 56.7551 159.943 56.7551H164.913C169.653 56.7551 171.541 56.2542 171.541 52.9019V52.5937H180.21C180.249 53.3258 180.287 53.9808 180.287 54.6359C180.287 58.1037 179.478 60.4156 177.475 61.8798C175.355 63.4596 172.003 63.7679 167.11 63.7679H157.554C153.123 63.7679 150.002 63.5752 147.574 61.6871C145.224 59.8376 144.337 57.2945 144.337 53.4799V45.8506C144.337 37.4507 147.998 35.0618 157.554 35.0618H167.11C172.003 35.0618 175.317 35.293 177.359 36.8728C179.17 38.2599 179.941 40.5718 179.941 43.924C179.941 44.425 179.941 44.9644 179.902 45.5038H171.31Z" fill="black"/>
<path d="M200.625 56.7551H206.058C211.491 56.7551 213.571 55.9459 213.571 51.3992V47.4304C213.571 42.8837 211.491 42.0745 206.058 42.0745H200.586C195.038 42.0745 193.072 42.8452 193.072 47.5846V51.4763C193.072 55.9074 195.192 56.7551 200.625 56.7551ZM198.313 63.7679C193.304 63.7679 189.797 63.5752 187.408 61.8027C185.135 60.1073 184.364 57.5257 184.364 53.4799V45.8506C184.364 41.5351 185.096 38.7608 187.408 37.0269C189.682 35.3315 193.149 35.0618 198.274 35.0618H208.331C213.456 35.0618 217.001 35.3315 219.235 37.0269C221.355 38.6452 222.241 41.3424 222.241 45.5038V53.3258C222.241 57.4872 221.393 60.1459 219.235 61.8027C216.924 63.5367 213.417 63.7679 208.331 63.7679H198.313Z" fill="black"/>
<path d="M265.266 63.4211H252.743L235.943 43.0378V63.4211H227.389V35.4086H240.066L256.75 55.9459V35.4086H265.266V63.4211Z" fill="black"/>
<path d="M289.153 63.4211H280.599V42.2672H268.885V35.4086H300.866V42.2672H289.153V63.4211Z" fill="black"/>
<path d="M335.195 42.2287H313.155V46.4671H333.924V52.3625H313.155V56.6395H335.542V63.4211H304.601V35.4086H335.195V42.2287Z" fill="black"/>
<path d="M378.377 63.4211H365.854L349.055 43.0378V63.4211H340.501V35.4086H353.177L369.862 55.9459V35.4086H378.377V63.4211Z" fill="black"/>
<path d="M402.264 63.4211H393.71V42.2672H381.996V35.4086H413.978V42.2672H402.264V63.4211Z" fill="black"/>
<path d="M167.187 74.4086C175.664 74.4086 178.669 76.2966 178.669 83.5791C178.669 88.2029 177.513 90.5148 174.007 91.3625C176.935 92.0561 178.438 93.8285 178.438 96.6799V102.421H169.884V98.1441C169.884 95.7551 168.844 95.2542 166.031 95.2542H153.277V102.421H144.684V74.4086H167.187ZM166.878 81.3828H153.277V88.2414H166.878C169.267 88.2414 169.961 87.2011 169.961 84.5424C169.961 82.3846 169.075 81.3828 166.878 81.3828Z" fill="black"/>
<path d="M214.671 81.2287H192.631V85.4671H213.399V91.3625H192.631V95.6395H215.018V102.421H184.077V74.4086H214.671V81.2287Z" fill="black"/>
<path d="M236.16 102.421H226.373L217.433 74.4086H225.949L231.728 94.3294L238.895 74.4086H246.756L253.537 94.3294L259.702 74.4086H268.218L258.855 102.421H249.222L242.748 83.1167L236.16 102.421Z" fill="black"/>
<path d="M275.48 102.421H266.156L281.453 74.4086H292.357L307.385 102.421H297.983L295.286 97.7587H278.216L275.48 102.421ZM281.453 91.0157H292.203L286.77 81.1131L281.453 91.0157Z" fill="black"/>
<path d="M332.903 74.4086C341.38 74.4086 344.385 76.2966 344.385 83.5791C344.385 88.2029 343.229 90.5148 339.723 91.3625C342.651 92.0561 344.154 93.8285 344.154 96.6799V102.421H335.6V98.1441C335.6 95.7551 334.56 95.2542 331.747 95.2542H318.993V102.421H310.4V74.4086H332.903ZM332.595 81.3828H318.993V88.2414H332.595C334.984 88.2414 335.677 87.2011 335.677 84.5424C335.677 82.3846 334.791 81.3828 332.595 81.3828Z" fill="black"/>
<path d="M374.453 74.4086C382.776 74.4086 386.706 77.1058 386.706 83.8103V93.4432C386.706 99.6468 383.739 102.421 376.958 102.421H349.87V74.4086H374.453ZM371.833 81.3057H358.424V95.601H372.912C376.534 95.601 378.152 94.1753 378.152 91.0157V86.0836C378.152 82.7699 376.11 81.3057 371.833 81.3057Z" fill="black"/>
<path d="M391.365 93.0964H399.804V93.5973C399.804 95.9092 400.844 96.2945 403.811 96.2945H414.561C416.604 96.2945 417.49 95.678 417.49 93.9826C417.49 91.9405 416.141 91.6322 413.367 91.5551L399.919 91.1313C393.408 90.9386 391.327 89.2047 391.327 82.7699C391.327 79.7259 391.866 77.6452 393.292 76.2195C395.334 74.2544 398.417 74.0618 402.925 74.0618H415.987C422.345 74.0618 425.119 76.181 425.119 81.5754C425.119 82.0378 425.081 82.5773 425.042 83.1167H416.796V83.0011C416.796 81.1516 415.872 80.2268 413.983 80.2268H404.119C401.461 80.2268 400.074 80.458 400.074 82.4231C400.074 84.1571 401.075 84.658 403.426 84.735L417.49 85.0818C423.925 85.236 426.237 87.6249 426.237 94.1753C426.237 97.7202 425.581 99.8009 423.077 101.419C421.343 102.537 418.492 102.768 414.407 102.768H403.002C394.332 102.768 391.25 101.458 391.25 95.3312C391.25 95.023 391.288 94.2524 391.365 93.0964Z" fill="black"/>
<path d="M12.8735 41.2951L20.4866 30.9821L23.1824 43.453L35.4912 47.3999L24.2869 53.7814L24.2807 66.532L14.6551 58.0049L2.3432 61.9396L7.60369 50.2863L0 39.9672L12.8735 41.2951Z" fill="url(#paint0_linear_262_169)"/>
<path d="M9.83769 90.6808L5.27922 80.5829L15.95 83.995L24.29 76.6022L24.2931 87.653L34.006 93.1829L23.3384 96.6042L21.0014 107.415L14.4055 98.4762L3.24803 99.6259L9.83769 90.6808Z" fill="url(#paint1_linear_262_169)"/>
<path d="M50.5613 115.235L41.981 114.344L48.3897 108.651L46.5988 100.336L54.0745 104.584L61.5503 100.336L59.7594 108.651L66.1712 114.344L57.5878 115.235L54.0745 123L50.5613 115.235Z" fill="url(#paint2_linear_262_169)"/>
<path d="M93.5844 98.2949L87.0883 107.096L84.7857 96.4505L74.2834 93.0846L83.8466 87.6376L83.8497 76.7559L92.0618 84.0349L102.57 80.6751L98.0805 90.6193L104.57 99.4261L93.5844 98.2949Z" fill="url(#paint3_linear_262_169)"/>
<path d="M100.517 50.271L105.778 61.9242L93.4658 57.9896L83.8434 66.5166L83.8372 53.766L72.6298 47.3845L84.9386 43.4376L87.6344 30.9667L95.2474 41.2797L108.121 39.9518L100.517 50.271Z" fill="url(#paint4_linear_262_169)"/>
<path d="M61.0823 15.5295L78.246 17.3154L65.4255 28.6982L69.0073 45.3312L54.0558 36.8348L39.1074 45.3312L42.6861 28.6982L29.8656 17.3154L47.0293 15.5295L54.0558 0L61.0823 15.5295Z" fill="url(#paint5_linear_262_169)"/>
<defs>
<linearGradient id="paint0_linear_262_169" x1="54.0605" y1="0" x2="54.0605" y2="123" gradientUnits="userSpaceOnUse">
<stop stop-color="#F59E0B"/>
<stop offset="1" stop-color="#F97316"/>
</linearGradient>
<linearGradient id="paint1_linear_262_169" x1="54.0605" y1="0" x2="54.0605" y2="123" gradientUnits="userSpaceOnUse">
<stop stop-color="#F59E0B"/>
<stop offset="1" stop-color="#F97316"/>
</linearGradient>
<linearGradient id="paint2_linear_262_169" x1="54.0605" y1="0" x2="54.0605" y2="123" gradientUnits="userSpaceOnUse">
<stop stop-color="#F59E0B"/>
<stop offset="1" stop-color="#F97316"/>
</linearGradient>
<linearGradient id="paint3_linear_262_169" x1="54.0605" y1="0" x2="54.0605" y2="123" gradientUnits="userSpaceOnUse">
<stop stop-color="#F59E0B"/>
<stop offset="1" stop-color="#F97316"/>
</linearGradient>
<linearGradient id="paint4_linear_262_169" x1="54.0605" y1="0" x2="54.0605" y2="123" gradientUnits="userSpaceOnUse">
<stop stop-color="#F59E0B"/>
<stop offset="1" stop-color="#F97316"/>
</linearGradient>
<linearGradient id="paint5_linear_262_169" x1="54.0605" y1="0" x2="54.0605" y2="123" gradientUnits="userSpaceOnUse">
<stop stop-color="#F59E0B"/>
<stop offset="1" stop-color="#F97316"/>
</linearGradient>
</defs>
</svg>
