<svg xmlns="http://www.w3.org/2000/svg" width="12" height="11" viewBox="0 0 18 16"><path d="M0.992647 6.96071H14.2131L8.95924 1.70683C8.86271 1.61563 8.78546 1.506 8.73205 1.38442C8.67863 1.26284 8.65015 1.13179 8.64826 0.999005C8.64638 0.866224 8.67115 0.734415 8.7211 0.611373C8.77104 0.488331 8.84516 0.376554 8.93906 0.282655C9.03296 0.188756 9.14474 0.11464 9.26778 0.0646924C9.39082 0.0147447 9.52263 -0.0100211 9.65541 -0.0081401C9.78819 -0.00625909 9.91924 0.0222305 10.0408 0.0756436C10.1624 0.129057 10.272 0.206309 10.3632 0.30283L17.3112 7.25295C17.4973 7.439 17.6018 7.69132 17.6018 7.95442C17.6018 8.21751 17.4973 8.46984 17.3112 8.65589L10.3632 15.6049C10.1753 15.7825 9.92557 15.8798 9.66706 15.8761C9.40855 15.8725 9.16166 15.7681 8.97885 15.5853C8.79603 15.4025 8.69171 15.1556 8.68805 14.8971C8.68439 14.6386 8.78168 14.3889 8.95924 14.2009L14.2131 8.94707H0.992647C0.729381 8.94707 0.476897 8.84248 0.29074 8.65633C0.104582 8.47017 0 8.21768 0 7.95442C0 7.69115 0.104582 7.43867 0.29074 7.25251C0.476897 7.06635 0.729381 6.96071 0.992647 6.96071Z" fill="#878787"/></svg>
