<svg xmlns="http://www.w3.org/2000/svg" viewBox="0 0 896 289" width="296" height="96"><path d="M360.465 126.128C350.927 126.128 342.52 123.964 335.243 119.638C327.967 115.213 322.264 108.969 318.134 100.906C314.004 92.745 311.939 82.9613 311.939 71.5551C311.939 60.3456 313.955 50.6602 317.987 42.4989C322.018 34.2392 327.672 27.897 334.948 23.4722C342.225 18.9491 350.779 16.6875 360.612 16.6875C373.985 16.6875 384.359 20.0307 391.733 26.7171C399.108 33.3051 403.926 42.548 406.188 54.4458L386.129 55.4783C384.85 48.5953 382.097 43.1872 377.869 39.254C373.641 35.3208 367.889 33.3543 360.612 33.3543C354.713 33.3543 349.599 34.9275 345.273 38.0741C340.947 41.2206 337.603 45.6454 335.243 51.3485C332.884 57.0516 331.704 63.7871 331.704 71.5551C331.704 79.4214 332.884 86.2061 335.243 91.9092C337.702 97.5139 341.094 101.84 345.421 104.889C349.747 107.937 354.762 109.461 360.465 109.461C368.233 109.461 374.231 107.347 378.459 103.119C382.786 98.7922 385.539 92.8925 386.719 85.4195L406.778 86.4519C405.401 94.6132 402.746 101.693 398.813 107.691C394.88 113.591 389.669 118.163 383.179 121.408C376.787 124.554 369.216 126.128 360.465 126.128Z" fill="#1A1A1A"/><path d="M452.625 125.538C444.857 125.538 438.023 123.866 432.124 120.523C426.322 117.081 421.799 112.263 418.554 106.069C415.408 99.8738 413.834 92.6467 413.834 84.387C413.834 76.0291 415.408 68.8019 418.554 62.7055C421.799 56.5107 426.322 51.7418 432.124 48.3986C438.023 44.9571 444.857 43.2363 452.625 43.2363C460.393 43.2363 467.178 44.9571 472.979 48.3986C478.781 51.7418 483.255 56.5107 486.401 62.7055C489.646 68.8019 491.269 76.0291 491.269 84.387C491.269 92.6467 489.646 99.8738 486.401 106.069C483.255 112.263 478.781 117.081 472.979 120.523C467.178 123.866 460.393 125.538 452.625 125.538ZM452.625 110.198C458.722 110.198 463.392 107.937 466.637 103.414C469.98 98.8905 471.652 92.5483 471.652 84.387C471.652 76.324 469.98 70.031 466.637 65.5079C463.392 60.8864 458.722 58.5756 452.625 58.5756C446.529 58.5756 441.809 60.8864 438.466 65.5079C435.123 70.031 433.451 76.324 433.451 84.387C433.451 92.5483 435.123 98.8905 438.466 103.414C441.809 107.937 446.529 110.198 452.625 110.198Z" fill="#1A1A1A"/><path d="M502.887 123.768V45.0062H519.996L520.734 67.1303L518.521 66.2453C519.308 60.7389 520.93 56.3141 523.389 52.9709C525.847 49.6277 528.846 47.1695 532.386 45.5962C535.926 44.023 539.81 43.2363 544.038 43.2363C549.839 43.2363 554.706 44.5146 558.64 47.0712C562.671 49.6277 565.719 53.1676 567.784 57.6907C569.849 62.1155 570.882 67.2778 570.882 73.1775V123.768H552.002V79.2247C552.002 74.7999 551.56 71.0634 550.675 68.0152C549.79 64.967 548.315 62.6563 546.25 61.083C544.284 59.4114 541.629 58.5756 538.286 58.5756C533.271 58.5756 529.239 60.3456 526.191 63.8854C523.241 67.4253 521.766 72.5384 521.766 79.2247V123.768H502.887Z" fill="#1A1A1A"/><path d="M614.61 123.768C606.744 123.768 600.942 121.949 597.206 118.311C593.568 114.672 591.748 108.969 591.748 101.201V26.5696H610.628V99.4314C610.628 103.07 611.414 105.626 612.987 107.101C614.561 108.478 617.019 109.166 620.362 109.166H631.424V123.768H614.61ZM579.359 59.6081V45.0062H631.424V59.6081H579.359Z" fill="#1A1A1A"/><path d="M675.095 125.538C667.229 125.538 660.395 123.866 654.593 120.523C648.792 117.081 644.318 112.263 641.171 106.069C638.025 99.8738 636.452 92.6467 636.452 84.387C636.452 76.1274 638.025 68.9494 641.171 62.853C644.318 56.6582 648.743 51.8401 654.446 48.3986C660.247 44.9571 666.983 43.2363 674.652 43.2363C682.125 43.2363 688.664 44.9079 694.269 48.2511C699.972 51.5943 704.348 56.4124 707.396 62.7055C710.444 68.9985 711.968 76.5699 711.968 85.4195V89.6968H656.068C656.462 96.5798 658.33 101.791 661.673 105.331C665.115 108.773 669.638 110.493 675.242 110.493C679.471 110.493 682.961 109.559 685.714 107.691C688.566 105.724 690.533 103.02 691.614 99.5788L710.936 100.759C708.773 108.428 704.495 114.476 698.104 118.9C691.811 123.325 684.141 125.538 675.095 125.538ZM656.068 77.0123H692.499C692.106 70.621 690.287 65.9012 687.042 62.853C683.797 59.7064 679.667 58.1332 674.652 58.1332C669.638 58.1332 665.459 59.7556 662.116 63.0005C658.871 66.2453 656.855 70.9159 656.068 77.0123Z" fill="#1A1A1A"/><path d="M723.776 123.768V45.0062H740.885L741.623 67.1303L739.41 66.2453C740.197 60.7389 741.819 56.3141 744.277 52.9709C746.736 49.6277 749.735 47.1695 753.275 45.5962C756.814 44.023 760.698 43.2363 764.927 43.2363C770.728 43.2363 775.595 44.5146 779.528 47.0712C783.56 49.6277 786.608 53.1676 788.673 57.6907C790.738 62.1155 791.77 67.2778 791.77 73.1775V123.768H772.891V79.2247C772.891 74.7999 772.449 71.0634 771.564 68.0152C770.679 64.967 769.204 62.6563 767.139 61.083C765.172 59.4114 762.518 58.5756 759.174 58.5756C754.16 58.5756 750.128 60.3456 747.08 63.8854C744.13 67.4253 742.655 72.5384 742.655 79.2247V123.768H723.776Z" fill="#1A1A1A"/><path d="M835.499 123.768C827.632 123.768 821.831 121.949 818.095 118.311C814.456 114.672 812.637 108.969 812.637 101.201V26.5696H831.516V99.4314C831.516 103.07 832.303 105.626 833.876 107.101C835.45 108.478 837.908 109.166 841.251 109.166H852.313V123.768H835.499ZM800.248 59.6081V45.0062H852.313V59.6081H800.248Z" fill="#1A1A1A"/><path d="M317.397 269.572V164.851H361.202C368.774 164.851 375.312 166.13 380.819 168.686C386.325 171.243 390.603 174.881 393.651 179.601C396.699 184.32 398.223 189.876 398.223 196.267C398.223 201.086 397.191 205.363 395.126 209.099C393.061 212.836 390.259 215.835 386.719 218.096C383.277 220.358 379.442 221.735 375.214 222.226L374.477 220.751C381.261 220.751 386.473 222.275 390.111 225.324C393.848 228.372 395.962 233.042 396.453 239.336L399.108 269.572H379.639L377.427 242.138C377.132 238.008 375.804 234.96 373.444 232.993C371.084 231.027 367.151 230.043 361.645 230.043H336.571V269.572H317.397ZM336.571 213.229H360.022C365.824 213.229 370.347 211.853 373.592 209.099C376.837 206.346 378.459 202.462 378.459 197.447C378.459 192.334 376.787 188.401 373.444 185.648C370.199 182.895 365.43 181.518 359.137 181.518H336.571V213.229Z" fill="#1A1A1A"/><path d="M446.428 271.342C438.562 271.342 431.728 269.67 425.927 266.327C420.125 262.885 415.651 258.067 412.505 251.872C409.358 245.678 407.785 238.451 407.785 230.191C407.785 221.931 409.358 214.753 412.505 208.657C415.651 202.462 420.076 197.644 425.779 194.203C431.581 190.761 438.316 189.04 445.986 189.04C453.459 189.04 459.998 190.712 465.602 194.055C471.305 197.398 475.681 202.216 478.729 208.509C481.777 214.802 483.302 222.374 483.302 231.223V235.501H427.402C427.795 242.384 429.663 247.595 433.006 251.135C436.448 254.577 440.971 256.297 446.576 256.297C450.804 256.297 454.295 255.363 457.048 253.495C459.899 251.528 461.866 248.824 462.947 245.383L482.269 246.563C480.106 254.232 475.829 260.28 469.437 264.704C463.144 269.129 455.474 271.342 446.428 271.342ZM427.402 222.816H463.832C463.439 216.425 461.62 211.705 458.375 208.657C455.13 205.51 451 203.937 445.986 203.937C440.971 203.937 436.792 205.559 433.449 208.804C430.204 212.049 428.188 216.72 427.402 222.816Z" fill="#1A1A1A"/><path d="M508.892 269.572L485.145 190.81H504.467L519.806 248.185L535.588 190.81H552.107L568.037 248.185L583.376 190.81H602.698L578.951 269.572H559.482L543.848 216.769L528.361 269.572H508.892Z" fill="#1A1A1A"/><path d="M631.978 271.342C623.719 271.342 617.082 269.473 612.067 265.737C607.052 261.902 604.545 256.592 604.545 249.808C604.545 243.023 606.659 237.713 610.887 233.878C615.115 230.043 621.556 227.29 630.209 225.619L656.315 220.456C656.315 214.852 655.037 210.673 652.48 207.919C649.924 205.068 646.138 203.642 641.123 203.642C636.6 203.642 633.011 204.724 630.356 206.887C627.8 208.952 626.03 211.951 625.046 215.884L605.872 214.999C607.445 206.641 611.28 200.25 617.377 195.825C623.473 191.302 631.388 189.04 641.123 189.04C652.333 189.04 660.789 191.892 666.492 197.595C672.293 203.2 675.194 211.263 675.194 221.784V250.398C675.194 252.462 675.538 253.888 676.227 254.675C677.013 255.461 678.144 255.855 679.619 255.855H682.126V269.572C681.536 269.768 680.553 269.916 679.176 270.014C677.898 270.112 676.571 270.162 675.194 270.162C671.949 270.162 669.048 269.67 666.492 268.687C663.935 267.605 661.969 265.786 660.592 263.229C659.216 260.575 658.527 256.986 658.527 252.462L660.15 253.642C659.363 257.084 657.642 260.181 654.987 262.934C652.431 265.589 649.186 267.654 645.253 269.129C641.32 270.604 636.895 271.342 631.978 271.342ZM635.813 257.625C640.041 257.625 643.68 256.789 646.728 255.117C649.776 253.446 652.136 251.135 653.807 248.185C655.479 245.235 656.315 241.745 656.315 237.713V233.288L635.961 237.418C631.733 238.303 628.684 239.63 626.816 241.4C625.046 243.072 624.161 245.284 624.161 248.038C624.161 251.086 625.145 253.446 627.111 255.117C629.176 256.789 632.077 257.625 635.813 257.625Z" fill="#1A1A1A"/><path d="M691.437 269.572V190.81H709.136L709.873 212.639L708.251 212.344C709.431 204.773 711.643 199.316 714.888 195.972C718.231 192.531 722.755 190.81 728.458 190.81H735.685V207.034H728.31C724.279 207.034 720.935 207.624 718.281 208.804C715.626 209.984 713.61 211.853 712.233 214.409C710.955 216.867 710.316 220.112 710.316 224.144V269.572H691.437Z" fill="#1A1A1A"/><path d="M770.957 271.342C764.27 271.342 758.469 269.67 753.552 266.327C748.734 262.984 744.998 258.215 742.343 252.02C739.688 245.825 738.36 238.549 738.36 230.191C738.36 221.833 739.688 214.557 742.343 208.362C744.998 202.167 748.783 197.398 753.7 194.055C758.616 190.712 764.369 189.04 770.957 189.04C776.463 189.04 781.281 190.171 785.411 192.433C789.639 194.694 792.835 197.89 794.998 202.02V164.851H813.877V269.572H795.883L795.44 257.92C793.277 262.148 790.032 265.442 785.706 267.802C781.379 270.162 776.463 271.342 770.957 271.342ZM776.709 256.002C780.642 256.002 783.936 255.019 786.591 253.052C789.344 251.086 791.409 248.185 792.786 244.35C794.26 240.417 794.998 235.697 794.998 230.191C794.998 224.586 794.26 219.866 792.786 216.032C791.409 212.197 789.344 209.296 786.591 207.329C783.936 205.363 780.642 204.38 776.709 204.38C771.006 204.38 766.433 206.69 762.992 211.312C759.649 215.835 757.977 222.128 757.977 230.191C757.977 238.057 759.649 244.35 762.992 249.07C766.433 253.692 771.006 256.002 776.709 256.002Z" fill="#1A1A1A"/><path d="M862.156 271.342C854.388 271.342 847.849 270.211 842.539 267.949C837.328 265.688 833.296 262.541 830.445 258.51C827.593 254.478 825.971 249.906 825.578 244.793L844.899 243.908C845.587 248.038 847.308 251.233 850.061 253.495C852.815 255.756 856.895 256.887 862.303 256.887C866.728 256.887 870.17 256.199 872.628 254.822C875.185 253.347 876.463 251.086 876.463 248.038C876.463 246.268 876.02 244.793 875.135 243.613C874.25 242.433 872.579 241.4 870.121 240.515C867.662 239.631 864.024 238.746 859.206 237.861C851.143 236.484 844.801 234.812 840.179 232.846C835.558 230.781 832.264 228.224 830.297 225.176C828.429 222.128 827.495 218.342 827.495 213.819C827.495 206.444 830.297 200.496 835.902 195.972C841.605 191.351 849.914 189.04 860.828 189.04C867.908 189.04 873.857 190.22 878.675 192.58C883.493 194.842 887.23 197.988 889.885 202.02C892.638 205.953 894.359 210.476 895.047 215.589L876.02 216.474C875.529 213.819 874.644 211.508 873.365 209.542C872.087 207.575 870.366 206.1 868.203 205.117C866.04 204.035 863.483 203.495 860.533 203.495C856.109 203.495 852.766 204.38 850.504 206.149C848.242 207.919 847.112 210.279 847.112 213.229C847.112 215.294 847.603 217.015 848.586 218.391C849.668 219.768 851.389 220.899 853.749 221.784C856.109 222.57 859.255 223.308 863.188 223.996C871.448 225.274 877.938 226.946 882.657 229.011C887.476 230.978 890.868 233.534 892.835 236.681C894.899 239.729 895.932 243.416 895.932 247.743C895.932 252.757 894.506 257.035 891.655 260.575C888.901 264.114 884.968 266.818 879.855 268.687C874.84 270.457 868.941 271.342 862.156 271.342Z" fill="#1A1A1A"/><path d="M124.658 0L141.099 36.9339L181.308 41.1592L151.263 68.21L159.67 107.75L124.658 87.5372L89.6462 107.75L98.0537 68.21L68.0085 41.1592L108.218 36.9339L124.658 0Z" fill="#1A1A1A"/><path d="M124.658 289L133.109 270.018L153.775 267.845L138.335 253.945L142.654 233.624L124.658 244.011L106.663 233.624L110.989 253.945L95.5487 267.845L116.208 270.018L124.658 289Z" fill="#1A1A1A"/><path d="M48.0119 72.4282L54.3247 102.106L83.1823 111.486L56.9017 126.652V157L34.3569 136.694L5.49941 146.073L17.8371 118.353L0 93.8068L30.182 96.974L48.0119 72.4282Z" fill="#1A1A1A"/><path d="M56.9017 177.723V204.896L80.4397 218.479L54.591 226.872L48.9477 253.455L32.9749 231.472L5.95291 234.315L21.9185 212.332L10.8693 187.506L36.7108 195.906L56.9017 177.723Z" fill="#1A1A1A"/><path d="M201.305 72.4282L194.999 102.106L166.134 111.486L192.415 126.652V157L214.967 136.694L243.824 146.073L231.479 118.353L249.316 93.8068L219.142 96.974L201.305 72.4282Z" fill="#1A1A1A"/><path d="M192.415 177.723V204.896L168.884 218.479L194.725 226.872L200.376 253.455L216.342 231.472L243.371 234.315L227.398 212.332L238.454 187.506L212.606 195.906L192.415 177.723Z" fill="#1A1A1A"/></svg>
